<svg width="64" height="64" viewBox="0 0 64 64" fill="none" xmlns="http://www.w3.org/2000/svg">
  <defs>
    <linearGradient id="fg" x1="32" y1="58" x2="32" y2="4" gradientUnits="userSpaceOnUse">
      <stop offset="0%" stop-color="#FF4500"/>
      <stop offset="40%" stop-color="#FF8C00"/>
      <stop offset="75%" stop-color="#FFB347"/>
      <stop offset="100%" stop-color="#FFD700"/>
    </linearGradient>
    <linearGradient id="ig" x1="32" y1="58" x2="32" y2="22" gradientUnits="userSpaceOnUse">
      <stop offset="0%" stop-color="#FF6B00"/>
      <stop offset="100%" stop-color="#FFD700"/>
    </linearGradient>
    <radialGradient id="bg" cx="50%" cy="50%" r="50%">
      <stop offset="0%" stop-color="rgba(255,140,0,0.2)"/>
      <stop offset="100%" stop-color="rgba(255,140,0,0.05)"/>
    </radialGradient>
  </defs>
  <circle cx="32" cy="32" r="30" fill="url(#bg)" stroke="rgba(255,160,50,0.15)" stroke-width="1.5"/>
  <path d="M32 8 C28 16, 16 22, 16 36 C16 46, 22 54, 32 56 C42 54, 48 46, 48 36 C48 22, 36 16, 32 8Z" fill="url(#fg)"/>
  <path d="M32 24 C30 30, 24 34, 24 42 C24 48, 27 52, 32 53 C37 52, 40 48, 40 42 C40 34, 34 30, 32 24Z" fill="url(#ig)" opacity="0.9"/>
  <ellipse cx="32" cy="46" rx="5" ry="6" fill="#FFF3D4" opacity="0.5"/>
</svg>